<svg xmlns="http://www.w3.org/2000/svg" viewBox="0 0 64 64">
  <defs>
    <radialGradient id="sealCore" cx="55%" cy="58%" r="44%">
      <stop offset="0" stop-color="#756b59" stop-opacity="0.82"/>
      <stop offset="0.68" stop-color="#756b59" stop-opacity="0.46"/>
      <stop offset="1" stop-color="#756b59" stop-opacity="0"/>
    </radialGradient>
    <radialGradient id="sealGlint" cx="42%" cy="38%" r="12%">
      <stop offset="0" stop-color="#fffdf8" stop-opacity="0.62"/>
      <stop offset="0.58" stop-color="#fffdf8" stop-opacity="0.38"/>
      <stop offset="1" stop-color="#fffdf8" stop-opacity="0"/>
    </radialGradient>
    <filter id="softShadow" x="-20%" y="-20%" width="140%" height="140%">
      <feDropShadow dx="0" dy="8" stdDeviation="6" flood-color="#5e4534" flood-opacity="0.22"/>
    </filter>
  </defs>
  <path d="M9 31C9 17 18 8 32 7c15-1 25 9 24 24-1 16-11 26-26 25C16 55 8 45 9 31Z" fill="#ebd8cf" opacity="0.58"/>
  <path d="M13 30C13 18 21 11 33 11c12 1 21 9 20 21-1 13-10 21-23 20-11-1-18-10-17-22Z" fill="#dcd8cb" stroke="#756b59" stroke-opacity="0.34" filter="url(#softShadow)"/>
  <path d="M13 30C13 18 21 11 33 11c12 1 21 9 20 21-1 13-10 21-23 20-11-1-18-10-17-22Z" fill="url(#sealCore)"/>
  <path d="M13 30C13 18 21 11 33 11c12 1 21 9 20 21-1 13-10 21-23 20-11-1-18-10-17-22Z" fill="url(#sealGlint)"/>
  <path d="M20 31C20 22 26 17 34 17c9 1 15 7 14 16-1 9-7 15-16 14-8-1-13-7-12-16Z" fill="none" stroke="#50483e" stroke-opacity="0.24" stroke-width="2"/>
</svg>
