<svg xmlns="http://www.w3.org/2000/svg" viewBox="0 0 64 64">
  <defs>
    <radialGradient id="sealCore" cx="55%" cy="58%" r="44%">
      <stop offset="0" stop-color="#213642" stop-opacity="0.84"/>
      <stop offset="0.68" stop-color="#496D8F" stop-opacity="0.5"/>
      <stop offset="1" stop-color="#496D8F" stop-opacity="0"/>
    </radialGradient>
    <radialGradient id="sealGlint" cx="42%" cy="38%" r="12%">
      <stop offset="0" stop-color="#FFFFFF" stop-opacity="0.7"/>
      <stop offset="0.58" stop-color="#F6FAF9" stop-opacity="0.46"/>
      <stop offset="1" stop-color="#F6FAF9" stop-opacity="0"/>
    </radialGradient>
    <filter id="softShadow" x="-20%" y="-20%" width="140%" height="140%">
      <feDropShadow dx="0" dy="8" stdDeviation="6" flood-color="#213642" flood-opacity="0.22"/>
    </filter>
  </defs>
  <path d="M9 31C9 17 18 8 32 7c15-1 25 9 24 24-1 16-11 26-26 25C16 55 8 45 9 31Z" fill="#E9EFEF" opacity="0.82"/>
  <path d="M13 30C13 18 21 11 33 11c12 1 21 9 20 21-1 13-10 21-23 20-11-1-18-10-17-22Z" fill="#E1E9EB" stroke="#213642" stroke-opacity="0.26" filter="url(#softShadow)"/>
  <path d="M13 30C13 18 21 11 33 11c12 1 21 9 20 21-1 13-10 21-23 20-11-1-18-10-17-22Z" fill="url(#sealCore)"/>
  <path d="M13 30C13 18 21 11 33 11c12 1 21 9 20 21-1 13-10 21-23 20-11-1-18-10-17-22Z" fill="url(#sealGlint)"/>
  <path d="M20 31C20 22 26 17 34 17c9 1 15 7 14 16-1 9-7 15-16 14-8-1-13-7-12-16Z" fill="none" stroke="#213642" stroke-opacity="0.24" stroke-width="2"/>
</svg>
